<svg width="32" height="32" viewBox="0 0 32 32" fill="none" xmlns="http://www.w3.org/2000/svg">
  <rect width="32" height="32" rx="6" fill="#6366f1"/>
  <path d="M8 12C8 10.8954 8.89543 10 10 10H14C15.1046 10 16 10.8954 16 12V20C16 21.1046 15.1046 22 14 22H10C8.89543 22 8 21.1046 8 20V12Z" fill="white"/>
  <path d="M18 8C18 6.89543 18.8954 6 20 6H24C25.1046 6 26 6.89543 26 8V16C26 17.1046 25.1046 18 24 18H20C18.8954 18 18 17.1046 18 16V8Z" fill="white" fill-opacity="0.8"/>
  <circle cx="12" cy="16" r="2" fill="#6366f1"/>
  <circle cx="22" cy="12" r="1.5" fill="#6366f1"/>
  <path d="M16 24L20 20L24 24" stroke="white" stroke-width="2" stroke-linecap="round" stroke-linejoin="round"/>
</svg>